<svg aria-hidden="true" style="width:0;height:0;position:absolute;overflow:hidden" xmlns="http://www.w3.org/2000/svg"><defs><symbol id="icon-add_16dp_E8EAED_FILL0_wght400_GRAD0_opsz20" viewBox="0 0 32 32"><path fill="#e8eaed" style="fill:var(--color1,#e8eaed)" d="M14.8 17.2H8v-2.4h6.8V8h2.4v6.8H24v2.4h-6.8V24h-2.4v-6.8z"/></symbol><symbol id="icon-location_on_16dp_E8EAED_FILL0_wght400_GRAD0_opsz20" viewBox="0 0 32 32"><path fill="#e8eaed" style="fill:var(--color1,#e8eaed)" d="M16.007 16q.993 0 1.693-.707t.7-1.7-.707-1.693-1.7-.7-1.693.707-.7 1.7.707 1.693 1.7.7zM16 25.633q3.967-3.567 5.983-6.567T24 13.699q0-3.5-2.283-5.8T16 5.599t-5.717 2.3T8 13.699q0 2.367 2.017 5.367T16 25.633zm0 3.167q-5.232-4.37-7.816-8.118T5.6 13.7q0-4.467 2.967-7.483T15.984 3.2t7.433 3.017T26.4 13.7q0 3.233-2.567 6.967T16 28.8z"/></symbol><symbol id="icon-mail_16dp_E8EAED_FILL0_wght400_GRAD0_opsz20" viewBox="0 0 32 32"><path fill="#e8eaed" style="fill:var(--color1,#e8eaed)" d="M5.6 25.6q-.99 0-1.695-.705T3.2 23.199V8.791q0-.991.705-1.691T5.6 6.4h20.8q.99 0 1.695.705t.705 1.696v14.408q0 .991-.705 1.691t-1.695.7H5.6zm10.4-8L5.6 11.633V23.2h20.8V11.633L16 17.6zm0-2.833L26.4 8.8H5.6L16 14.767zM5.6 11.633z"/></symbol><symbol id="icon-Vector" viewBox="0 0 54 32"><path d="M1.55 8.987c.27.47.558.887.863 1.251.317.352.663.628 1.039.828.376.188.798.282 1.268.282.563 0 1.021-.153 1.373-.458s.528-.699.528-1.181c0-.458-.112-.822-.335-1.092-.223-.282-.534-.517-.933-.705-.387-.2-.839-.394-1.356-.582a10.714 10.714 0 0 1-1.021-.423 6.14 6.14 0 0 1-1.074-.687 3.59 3.59 0 0 1-.845-1.022c-.223-.411-.335-.905-.335-1.48 0-.658.17-1.233.511-1.727A3.32 3.32 0 0 1 2.606.828c.587-.282 1.25-.423 1.99-.423.728 0 1.362.129 1.902.388s.992.587 1.356.987c.376.399.669.816.88 1.251l-1.69.952a3.767 3.767 0 0 0-.581-.846 2.552 2.552 0 0 0-.828-.634 2.235 2.235 0 0 0-1.074-.247c-.575 0-.998.135-1.268.405-.27.258-.405.564-.405.916 0 .317.094.605.282.863.2.247.505.482.916.705s.945.452 1.602.687a7.51 7.51 0 0 1 1.092.493c.376.2.716.452 1.021.758.305.294.546.64.722 1.04.188.399.282.869.282 1.41 0 .576-.111 1.092-.335 1.551s-.528.846-.916 1.163c-.387.305-.828.54-1.321.705a4.373 4.373 0 0 1-1.514.264 4.846 4.846 0 0 1-2.025-.423c-.61-.294-1.145-.681-1.602-1.163S.27 10.626 0 10.062l1.55-1.075zM11.764 7.295V5.374h8.786v1.921h-8.786zM19.212.617h2.078v12.335h-2.078V.617zm-8.276 0h2.078v12.335h-2.078V.617zM25.536 6.784c0 .846.176 1.603.528 2.273.364.658.863 1.175 1.497 1.551s1.356.564 2.166.564c.822 0 1.544-.188 2.166-.564a3.915 3.915 0 0 0 1.479-1.551c.364-.67.546-1.427.546-2.273s-.176-1.598-.528-2.255a3.882 3.882 0 0 0-1.479-1.568c-.622-.376-1.35-.564-2.183-.564-.81 0-1.532.188-2.166.564s-1.133.899-1.497 1.568c-.352.658-.528 1.41-.528 2.255zm-2.201 0c0-.928.158-1.78.475-2.555s.763-1.445 1.338-2.009A6.288 6.288 0 0 1 27.19.881a6.717 6.717 0 0 1 2.535-.476c.927 0 1.778.159 2.553.476s1.45.764 2.025 1.339c.587.564 1.039 1.233 1.356 2.009s.475 1.627.475 2.555c0 .916-.158 1.768-.475 2.555s-.763 1.468-1.338 2.044a6.273 6.273 0 0 1-2.042 1.357c-.775.317-1.626.476-2.553.476a6.762 6.762 0 0 1-2.553-.476 6.273 6.273 0 0 1-2.042-1.357c-.563-.576-1.004-1.257-1.321-2.044s-.475-1.639-.475-2.555zM48.769 8.881 51.657.617h2.412l-5.036 12.987-3.803-8.722-3.803 8.722L36.391.617h2.412l2.923 8.264L45.23 0l3.539 8.881zM2.953 24.06c0 1.073.239 2.016.717 2.828a5.32 5.32 0 0 0 1.913 1.893 5.314 5.314 0 0 0 2.587.653c.725 0 1.377-.094 1.956-.283s1.101-.442 1.565-.762a6.59 6.59 0 0 0 1.239-1.109v3.046c-.638.522-1.326.921-2.065 1.196s-1.667.413-2.782.413-2.159-.189-3.13-.566c-.956-.377-1.79-.921-2.5-1.632S1.185 28.192.779 27.235c-.391-.972-.587-2.03-.587-3.176s.196-2.197.587-3.154c.406-.972.964-1.813 1.674-2.523s1.543-1.255 2.5-1.632c.971-.377 2.014-.566 3.13-.566s2.043.138 2.782.413a7.239 7.239 0 0 1 2.065 1.196v3.046a6.022 6.022 0 0 0-1.239-1.088c-.464-.334-.985-.595-1.565-.783s-1.232-.283-1.956-.283c-.928 0-1.79.225-2.587.674-.783.435-1.42 1.059-1.913 1.871-.478.798-.717 1.74-.717 2.828zM17.599 27.758l.478-2.175h7.065l.5 2.175h-8.043zm3.978-7.005-2.391 5.591-.043.566-2.109 4.764h-2.891l7.434-16.076 7.434 16.076H26.12l-2.065-4.634-.065-.631-2.413-5.656zM31.782 26.779c.333.58.688 1.095 1.065 1.545.391.435.819.776 1.283 1.022.464.232.986.348 1.565.348.696 0 1.261-.188 1.696-.566s.652-.863.652-1.457c0-.566-.138-1.015-.413-1.349-.275-.348-.659-.638-1.152-.87a14.356 14.356 0 0 0-1.674-.718 13.4 13.4 0 0 1-1.261-.522 7.61 7.61 0 0 1-1.326-.848 4.415 4.415 0 0 1-1.043-1.262c-.275-.508-.413-1.117-.413-1.827 0-.812.21-1.523.63-2.132a4.104 4.104 0 0 1 1.696-1.436c.725-.348 1.543-.522 2.456-.522.899 0 1.681.16 2.348.479s1.225.725 1.674 1.218a6.26 6.26 0 0 1 1.087 1.544l-2.087 1.175a4.595 4.595 0 0 0-.717-1.044 3.139 3.139 0 0 0-1.022-.783c-.377-.203-.819-.305-1.326-.305-.71 0-1.232.167-1.565.5-.333.319-.5.696-.5 1.131 0 .392.116.747.348 1.066.246.305.623.595 1.13.87s1.167.558 1.978.848c.449.16.899.363 1.348.609.464.247.884.558 1.261.935.377.363.674.79.891 1.284.232.493.348 1.073.348 1.74 0 .711-.138 1.349-.413 1.914s-.652 1.044-1.13 1.436a5.339 5.339 0 0 1-1.63.87 5.38 5.38 0 0 1-1.869.326 5.984 5.984 0 0 1-2.5-.522c-.754-.362-1.413-.841-1.978-1.436s-1.015-1.24-1.348-1.936l1.913-1.327zM44.957 31.674v-2.262h7.673v2.262h-7.673zm0-12.966v-2.262h7.673v2.262h-7.673zm0 5.917v-2.219h7.239v2.219h-7.239zm-1.587-8.179h2.522v15.228H43.37V16.446z"/></symbol><symbol id="icon-mail_16dp_E8EAED_FILL0_wght400_GRAD0_opsz201" viewBox="0 0 32 32"><path fill="#e8eaed" style="fill:var(--color1,#e8eaed)" d="M5.6 25.6q-.99 0-1.695-.705T3.2 23.199V8.791q0-.991.705-1.691T5.6 6.4h20.8q.99 0 1.695.705t.705 1.696v14.408q0 .991-.705 1.691t-1.695.7H5.6zm10.4-8L5.6 11.633V23.2h20.8V11.633L16 17.6zm0-2.833L26.4 8.8H5.6L16 14.767zM5.6 11.633z"/></symbol></defs></svg>