<svg aria-hidden="true" style="position: absolute; width: 0; height: 0; overflow: hidden;" version="1.1" xmlns="http://www.w3.org/2000/svg" xmlns:xlink="http://www.w3.org/1999/xlink">
<defs>
<symbol id="icon-add" viewBox="0 0 32 32">
<path d="M14.8 17.2h-6.8v-2.4h6.8v-6.8h2.4v6.8h6.8v2.4h-6.8v6.8h-2.4v-6.8z"></path>
</symbol>
<symbol id="icon-location" viewBox="0 0 32 32">
<path d="M16.007 16q0.993 0 1.693-0.707t0.7-1.7-0.707-1.693-1.7-0.7-1.693 0.707-0.7 1.7 0.707 1.693 1.7 0.7zM16 25.633q3.967-3.567 5.983-6.567t2.017-5.367q0-3.5-2.283-5.8t-5.717-2.3-5.717 2.3-2.283 5.8q0 2.367 2.017 5.367t5.983 6.567zM16 28.8q-5.232-4.37-7.816-8.118t-2.584-6.982q0-4.467 2.967-7.483t7.417-3.017 7.433 3.017 2.983 7.483q0 3.233-2.567 6.967t-7.833 8.133z"></path>
</symbol>
<symbol id="icon-mail" viewBox="0 0 32 32">
<path d="M5.6 25.6q-0.99 0-1.695-0.705t-0.705-1.696v-14.408q0-0.991 0.705-1.691t1.695-0.7h20.8q0.99 0 1.695 0.705t0.705 1.696v14.408q0 0.991-0.705 1.691t-1.695 0.7h-20.8zM16 17.6l-10.4-5.967v11.567h20.8v-11.567l-10.4 5.967zM16 14.767l10.4-5.967h-20.8l10.4 5.967zM5.6 11.633v0z"></path>
</symbol>
<symbol id="icon-Vector" viewBox="0 0 54 32">
<path d="M1.55 8.987c0.27 0.47 0.558 0.887 0.863 1.251 0.317 0.352 0.663 0.628 1.039 0.828 0.376 0.188 0.798 0.282 1.268 0.282 0.563 0 1.021-0.153 1.373-0.458s0.528-0.699 0.528-1.181c0-0.458-0.112-0.822-0.335-1.092-0.223-0.282-0.534-0.517-0.933-0.705-0.387-0.2-0.839-0.394-1.356-0.582-0.305-0.106-0.646-0.247-1.021-0.423-0.376-0.188-0.734-0.417-1.074-0.687-0.34-0.282-0.622-0.623-0.845-1.022-0.223-0.411-0.335-0.905-0.335-1.48 0-0.658 0.17-1.233 0.511-1.727 0.34-0.505 0.798-0.893 1.373-1.163 0.587-0.282 1.25-0.423 1.99-0.423 0.728 0 1.362 0.129 1.902 0.388s0.992 0.587 1.356 0.987c0.376 0.399 0.669 0.816 0.88 1.251l-1.69 0.952c-0.153-0.305-0.346-0.587-0.581-0.846-0.235-0.27-0.511-0.482-0.828-0.634-0.305-0.164-0.663-0.247-1.074-0.247-0.575 0-0.998 0.135-1.268 0.405-0.27 0.258-0.405 0.564-0.405 0.916 0 0.317 0.094 0.605 0.282 0.863 0.2 0.247 0.505 0.482 0.916 0.705s0.945 0.452 1.602 0.687c0.364 0.129 0.728 0.294 1.092 0.493 0.376 0.2 0.716 0.452 1.021 0.758 0.305 0.294 0.546 0.64 0.722 1.040 0.188 0.399 0.282 0.869 0.282 1.41 0 0.576-0.111 1.092-0.335 1.551s-0.528 0.846-0.916 1.163c-0.387 0.305-0.828 0.54-1.321 0.705-0.481 0.176-0.986 0.264-1.514 0.264-0.728 0-1.403-0.141-2.025-0.423-0.61-0.294-1.145-0.681-1.602-1.163s-0.822-1.004-1.092-1.568l1.55-1.075z"></path>
<path d="M11.764 7.295v-1.921h8.786v1.921h-8.786zM19.212 0.617h2.078v12.335h-2.078v-12.335zM10.936 0.617h2.078v12.335h-2.078v-12.335z"></path>
<path d="M25.536 6.784c0 0.846 0.176 1.603 0.528 2.273 0.364 0.658 0.863 1.175 1.497 1.551s1.356 0.564 2.166 0.564c0.822 0 1.544-0.188 2.166-0.564 0.634-0.376 1.127-0.893 1.479-1.551 0.364-0.67 0.546-1.427 0.546-2.273s-0.176-1.598-0.528-2.255c-0.352-0.67-0.845-1.192-1.479-1.568-0.622-0.376-1.35-0.564-2.183-0.564-0.81 0-1.532 0.188-2.166 0.564s-1.133 0.899-1.497 1.568c-0.352 0.658-0.528 1.41-0.528 2.255zM23.335 6.784c0-0.928 0.158-1.78 0.475-2.555s0.763-1.445 1.338-2.009c0.587-0.576 1.268-1.022 2.042-1.339 0.786-0.317 1.632-0.476 2.535-0.476 0.927 0 1.778 0.159 2.553 0.476s1.45 0.764 2.025 1.339c0.587 0.564 1.039 1.233 1.356 2.009s0.475 1.627 0.475 2.555c0 0.916-0.158 1.768-0.475 2.555s-0.763 1.468-1.338 2.044c-0.575 0.576-1.256 1.028-2.042 1.357-0.775 0.317-1.626 0.476-2.553 0.476-0.916 0-1.767-0.159-2.553-0.476-0.786-0.329-1.467-0.781-2.042-1.357-0.563-0.576-1.004-1.257-1.321-2.044s-0.475-1.639-0.475-2.555z"></path>
<path d="M48.769 8.881l2.888-8.264h2.412l-5.036 12.987-3.803-8.722-3.803 8.722-5.036-12.987h2.412l2.923 8.264 3.504-8.881 3.539 8.881z"></path>
<path d="M2.953 24.060c0 1.073 0.239 2.016 0.717 2.828 0.493 0.812 1.13 1.443 1.913 1.893 0.797 0.435 1.659 0.653 2.587 0.653 0.725 0 1.377-0.094 1.956-0.283s1.101-0.442 1.565-0.762c0.478-0.334 0.891-0.703 1.239-1.109v3.046c-0.638 0.522-1.326 0.921-2.065 1.196s-1.667 0.413-2.782 0.413-2.159-0.189-3.13-0.566c-0.956-0.377-1.79-0.921-2.5-1.632s-1.268-1.545-1.674-2.502c-0.391-0.972-0.587-2.030-0.587-3.176s0.196-2.197 0.587-3.154c0.406-0.972 0.964-1.813 1.674-2.523s1.543-1.255 2.5-1.632c0.971-0.377 2.014-0.566 3.13-0.566s2.043 0.138 2.782 0.413c0.739 0.276 1.428 0.674 2.065 1.196v3.046c-0.348-0.406-0.761-0.769-1.239-1.088-0.464-0.334-0.985-0.595-1.565-0.783s-1.232-0.283-1.956-0.283c-0.928 0-1.79 0.225-2.587 0.674-0.783 0.435-1.42 1.059-1.913 1.871-0.478 0.798-0.717 1.74-0.717 2.828z"></path>
<path d="M17.599 27.758l0.478-2.175h7.065l0.5 2.175h-8.043zM21.577 20.753l-2.391 5.591-0.043 0.566-2.109 4.764h-2.891l7.434-16.076 7.434 16.076h-2.891l-2.065-4.634-0.065-0.631-2.413-5.656z"></path>
<path d="M31.782 26.779c0.333 0.58 0.688 1.095 1.065 1.545 0.391 0.435 0.819 0.776 1.283 1.022 0.464 0.232 0.986 0.348 1.565 0.348 0.696 0 1.261-0.188 1.696-0.566s0.652-0.863 0.652-1.457c0-0.566-0.138-1.015-0.413-1.349-0.275-0.348-0.659-0.638-1.152-0.87-0.478-0.247-1.036-0.486-1.674-0.718-0.377-0.131-0.797-0.305-1.261-0.522-0.464-0.232-0.906-0.515-1.326-0.848-0.42-0.348-0.768-0.769-1.043-1.262-0.275-0.508-0.413-1.117-0.413-1.827 0-0.812 0.21-1.523 0.63-2.132 0.42-0.624 0.986-1.102 1.696-1.436 0.725-0.348 1.543-0.522 2.456-0.522 0.899 0 1.681 0.16 2.348 0.479s1.225 0.725 1.674 1.218c0.464 0.493 0.826 1.008 1.087 1.544l-2.087 1.175c-0.188-0.377-0.427-0.725-0.717-1.044-0.29-0.334-0.63-0.595-1.022-0.783-0.377-0.203-0.819-0.305-1.326-0.305-0.71 0-1.232 0.167-1.565 0.5-0.333 0.319-0.5 0.696-0.5 1.131 0 0.392 0.116 0.747 0.348 1.066 0.246 0.305 0.623 0.595 1.13 0.87s1.167 0.558 1.978 0.848c0.449 0.16 0.899 0.363 1.348 0.609 0.464 0.247 0.884 0.558 1.261 0.935 0.377 0.363 0.674 0.79 0.891 1.284 0.232 0.493 0.348 1.073 0.348 1.74 0 0.711-0.138 1.349-0.413 1.914s-0.652 1.044-1.13 1.436c-0.478 0.377-1.022 0.667-1.63 0.87-0.594 0.218-1.217 0.326-1.869 0.326-0.899 0-1.732-0.174-2.5-0.522-0.754-0.362-1.413-0.841-1.978-1.436s-1.015-1.24-1.348-1.936l1.913-1.327z"></path>
<path d="M44.957 31.674v-2.262h7.673v2.262h-7.673zM44.957 18.708v-2.262h7.673v2.262h-7.673zM44.957 24.625v-2.219h7.239v2.219h-7.239zM43.37 16.446h2.522v15.228h-2.522v-15.228z"></path>
</symbol>
</defs>
</svg>
